<svg width="64" height="64" viewBox="0 0 64 64" fill="none" xmlns="http://www.w3.org/2000/svg">
  <rect width="64" height="64" rx="20" fill="#146D74"/>
  <path d="M24 21.5C24 18.4624 26.4624 16 29.5 16C32.5376 16 35 18.4624 35 21.5V24H37.5C40.5376 24 43 26.4624 43 29.5C43 32.5376 40.5376 35 37.5 35H35V37.5C35 40.5376 32.5376 43 29.5 43C26.4624 43 24 40.5376 24 37.5V35H21.5C18.4624 35 16 32.5376 16 29.5C16 26.4624 18.4624 24 21.5 24H24V21.5Z" fill="#FFF7EA"/>
  <path d="M41 18C44.866 20.7252 47.4 25.2268 47.4 30.32C47.4 38.6204 40.6204 45.4 32.32 45.4C27.2268 45.4 22.7252 42.866 20 39" stroke="#EDA543" stroke-width="3.4" stroke-linecap="round"/>
</svg>
